<mxfile host="app.diagrams.net" agent="Mozilla/5.0 (Windows NT 10.0; Win64; x64) AppleWebKit/537.36 (KHTML, like Gecko) Chrome/131.0.0.0 Safari/537.36 Edg/131.0.0.0" version="24.9.1">
  <diagram name="第 1 页" id="cYy1bYXmpqyMDv-QERmB">
    <mxGraphModel dx="2178" dy="859" grid="1" gridSize="10" guides="1" tooltips="1" connect="1" arrows="1" fold="1" page="1" pageScale="1" pageWidth="827" pageHeight="1169" math="0" shadow="0">
      <root>
        <mxCell id="0" />
        <mxCell id="1" parent="0" />
        <mxCell id="e5L5vD8oaQUCgjLPIQ8V-1" value="用户注册" style="text;strokeColor=none;align=center;fillColor=none;html=1;verticalAlign=middle;whiteSpace=wrap;rounded=0;" vertex="1" parent="1">
          <mxGeometry x="284" y="60" width="130" height="70" as="geometry" />
        </mxCell>
        <mxCell id="e5L5vD8oaQUCgjLPIQ8V-7" value="用户" style="swimlane;horizontal=0;whiteSpace=wrap;html=1;rotation=90;movable=1;resizable=1;rotatable=1;deletable=1;editable=1;locked=0;connectable=1;" vertex="1" parent="1">
          <mxGeometry x="-180" y="320" width="700" height="365" as="geometry" />
        </mxCell>
        <mxCell id="e5L5vD8oaQUCgjLPIQ8V-5" value="用户点击注册" style="rounded=1;whiteSpace=wrap;html=1;" vertex="1" parent="e5L5vD8oaQUCgjLPIQ8V-7">
          <mxGeometry x="260.5" y="-71" width="120" height="60" as="geometry" />
        </mxCell>
        <mxCell id="e5L5vD8oaQUCgjLPIQ8V-11" value="" style="edgeStyle=orthogonalEdgeStyle;rounded=0;orthogonalLoop=1;jettySize=auto;html=1;" edge="1" parent="e5L5vD8oaQUCgjLPIQ8V-7" source="e5L5vD8oaQUCgjLPIQ8V-3" target="e5L5vD8oaQUCgjLPIQ8V-5">
          <mxGeometry relative="1" as="geometry" />
        </mxCell>
        <mxCell id="e5L5vD8oaQUCgjLPIQ8V-3" value="" style="ellipse;whiteSpace=wrap;html=1;aspect=fixed;fillColor=#000000;" vertex="1" parent="e5L5vD8oaQUCgjLPIQ8V-7">
          <mxGeometry x="309" y="-139" width="23" height="23" as="geometry" />
        </mxCell>
        <mxCell id="e5L5vD8oaQUCgjLPIQ8V-21" value="" style="edgeStyle=orthogonalEdgeStyle;rounded=0;orthogonalLoop=1;jettySize=auto;html=1;" edge="1" parent="e5L5vD8oaQUCgjLPIQ8V-7" source="e5L5vD8oaQUCgjLPIQ8V-19" target="e5L5vD8oaQUCgjLPIQ8V-20">
          <mxGeometry relative="1" as="geometry" />
        </mxCell>
        <mxCell id="e5L5vD8oaQUCgjLPIQ8V-19" value="用户填写必填表单" style="rounded=1;whiteSpace=wrap;html=1;" vertex="1" parent="e5L5vD8oaQUCgjLPIQ8V-7">
          <mxGeometry x="260.5" y="45" width="119.5" height="60" as="geometry" />
        </mxCell>
        <mxCell id="e5L5vD8oaQUCgjLPIQ8V-20" value="用户提交注册表单" style="whiteSpace=wrap;html=1;rounded=1;" vertex="1" parent="e5L5vD8oaQUCgjLPIQ8V-7">
          <mxGeometry x="260.5" y="165" width="120" height="60" as="geometry" />
        </mxCell>
        <mxCell id="e5L5vD8oaQUCgjLPIQ8V-59" style="edgeStyle=orthogonalEdgeStyle;rounded=0;orthogonalLoop=1;jettySize=auto;html=1;exitX=0;exitY=0.5;exitDx=0;exitDy=0;entryX=0;entryY=0.5;entryDx=0;entryDy=0;" edge="1" parent="e5L5vD8oaQUCgjLPIQ8V-7" source="e5L5vD8oaQUCgjLPIQ8V-48" target="e5L5vD8oaQUCgjLPIQ8V-5">
          <mxGeometry relative="1" as="geometry">
            <Array as="points">
              <mxPoint x="210" y="315" />
              <mxPoint x="210" y="-41" />
            </Array>
          </mxGeometry>
        </mxCell>
        <mxCell id="e5L5vD8oaQUCgjLPIQ8V-48" value="未满足注册要求，注册失败，请重新注册" style="whiteSpace=wrap;html=1;rounded=1;" vertex="1" parent="e5L5vD8oaQUCgjLPIQ8V-7">
          <mxGeometry x="260" y="285" width="120" height="60" as="geometry" />
        </mxCell>
        <mxCell id="e5L5vD8oaQUCgjLPIQ8V-9" value="后台" style="swimlane;horizontal=0;whiteSpace=wrap;html=1;rotation=90;movable=0;resizable=0;rotatable=0;deletable=0;editable=0;locked=1;connectable=0;" vertex="1" parent="1">
          <mxGeometry x="259.06" y="245.94" width="697.5" height="510" as="geometry" />
        </mxCell>
        <mxCell id="e5L5vD8oaQUCgjLPIQ8V-47" value="" style="edgeStyle=orthogonalEdgeStyle;rounded=0;orthogonalLoop=1;jettySize=auto;html=1;" edge="1" parent="e5L5vD8oaQUCgjLPIQ8V-9" source="e5L5vD8oaQUCgjLPIQ8V-16" target="e5L5vD8oaQUCgjLPIQ8V-46">
          <mxGeometry relative="1" as="geometry" />
        </mxCell>
        <mxCell id="e5L5vD8oaQUCgjLPIQ8V-16" value="系统显示注册表单" style="rounded=1;whiteSpace=wrap;html=1;align=center;" vertex="1" parent="e5L5vD8oaQUCgjLPIQ8V-9">
          <mxGeometry x="206" y="4" width="120" height="60" as="geometry" />
        </mxCell>
        <mxCell id="e5L5vD8oaQUCgjLPIQ8V-53" style="edgeStyle=orthogonalEdgeStyle;rounded=0;orthogonalLoop=1;jettySize=auto;html=1;exitX=1;exitY=0.5;exitDx=0;exitDy=0;entryX=0.5;entryY=0;entryDx=0;entryDy=0;" edge="1" parent="e5L5vD8oaQUCgjLPIQ8V-9" source="e5L5vD8oaQUCgjLPIQ8V-46" target="e5L5vD8oaQUCgjLPIQ8V-52">
          <mxGeometry relative="1" as="geometry" />
        </mxCell>
        <mxCell id="e5L5vD8oaQUCgjLPIQ8V-46" value="" style="rhombus;whiteSpace=wrap;html=1;rounded=1;" vertex="1" parent="e5L5vD8oaQUCgjLPIQ8V-9">
          <mxGeometry x="226" y="160" width="80" height="80" as="geometry" />
        </mxCell>
        <mxCell id="e5L5vD8oaQUCgjLPIQ8V-55" value="" style="edgeStyle=orthogonalEdgeStyle;rounded=0;orthogonalLoop=1;jettySize=auto;html=1;" edge="1" parent="e5L5vD8oaQUCgjLPIQ8V-9" source="e5L5vD8oaQUCgjLPIQ8V-52">
          <mxGeometry relative="1" as="geometry">
            <mxPoint x="451" y="434.9999999999998" as="targetPoint" />
          </mxGeometry>
        </mxCell>
        <mxCell id="e5L5vD8oaQUCgjLPIQ8V-52" value="注册成功，记录账户信息" style="rounded=1;whiteSpace=wrap;html=1;" vertex="1" parent="e5L5vD8oaQUCgjLPIQ8V-9">
          <mxGeometry x="391" y="305" width="120" height="60" as="geometry" />
        </mxCell>
        <mxCell id="e5L5vD8oaQUCgjLPIQ8V-56" value="" style="ellipse;html=1;shape=endState;fillColor=#000000;strokeColor=#ff0000;" vertex="1" parent="e5L5vD8oaQUCgjLPIQ8V-9">
          <mxGeometry x="436" y="435" width="30" height="30" as="geometry" />
        </mxCell>
        <mxCell id="e5L5vD8oaQUCgjLPIQ8V-12" style="edgeStyle=orthogonalEdgeStyle;rounded=0;orthogonalLoop=1;jettySize=auto;html=1;" edge="1" parent="1" source="e5L5vD8oaQUCgjLPIQ8V-5" target="e5L5vD8oaQUCgjLPIQ8V-16">
          <mxGeometry relative="1" as="geometry">
            <mxPoint x="365" y="284" as="targetPoint" />
          </mxGeometry>
        </mxCell>
        <mxCell id="e5L5vD8oaQUCgjLPIQ8V-38" style="edgeStyle=orthogonalEdgeStyle;rounded=0;orthogonalLoop=1;jettySize=auto;html=1;exitX=1;exitY=0.5;exitDx=0;exitDy=0;entryX=0;entryY=0.5;entryDx=0;entryDy=0;" edge="1" parent="1" source="e5L5vD8oaQUCgjLPIQ8V-20" target="e5L5vD8oaQUCgjLPIQ8V-46">
          <mxGeometry relative="1" as="geometry">
            <mxPoint x="450.01046368485845" y="520" as="targetPoint" />
          </mxGeometry>
        </mxCell>
        <mxCell id="e5L5vD8oaQUCgjLPIQ8V-51" style="edgeStyle=orthogonalEdgeStyle;rounded=0;orthogonalLoop=1;jettySize=auto;html=1;exitX=0.5;exitY=1;exitDx=0;exitDy=0;entryX=1;entryY=0.5;entryDx=0;entryDy=0;" edge="1" parent="1" source="e5L5vD8oaQUCgjLPIQ8V-46" target="e5L5vD8oaQUCgjLPIQ8V-48">
          <mxGeometry relative="1" as="geometry" />
        </mxCell>
        <mxCell id="e5L5vD8oaQUCgjLPIQ8V-60" style="edgeStyle=orthogonalEdgeStyle;rounded=0;orthogonalLoop=1;jettySize=auto;html=1;exitX=0;exitY=1;exitDx=0;exitDy=0;entryX=1;entryY=0.5;entryDx=0;entryDy=0;" edge="1" parent="1" source="e5L5vD8oaQUCgjLPIQ8V-16" target="e5L5vD8oaQUCgjLPIQ8V-19">
          <mxGeometry relative="1" as="geometry" />
        </mxCell>
        <mxCell id="e5L5vD8oaQUCgjLPIQ8V-61" value="" style="ellipse;html=1;shape=endState;fillColor=#000000;strokeColor=#ff0000;" vertex="1" parent="1">
          <mxGeometry x="120" y="710" width="30" height="30" as="geometry" />
        </mxCell>
        <mxCell id="e5L5vD8oaQUCgjLPIQ8V-74" value="" style="endArrow=classic;html=1;rounded=0;" edge="1" parent="1" source="e5L5vD8oaQUCgjLPIQ8V-48">
          <mxGeometry width="50" height="50" relative="1" as="geometry">
            <mxPoint x="134.44" y="670" as="sourcePoint" />
            <mxPoint x="134.44" y="710" as="targetPoint" />
          </mxGeometry>
        </mxCell>
      </root>
    </mxGraphModel>
  </diagram>
</mxfile>
